<mxfile host="app.diagrams.net" agent="Mozilla/5.0 (Windows NT 10.0; Win64; x64) AppleWebKit/537.36 (KHTML, like Gecko) Chrome/129.0.0.0 Safari/537.36" version="24.7.17">
  <diagram name="Страница — 1" id="Hh-IpeUZCV0D9F72dSlE">
    <mxGraphModel grid="1" page="1" gridSize="10" guides="1" tooltips="1" connect="1" arrows="1" fold="1" pageScale="1" pageWidth="827" pageHeight="1169" math="0" shadow="0">
      <root>
        <mxCell id="0" />
        <mxCell id="1" parent="0" />
        <mxCell id="Z2bBjOUxueCLLeqUOIa0-2" value="" style="endArrow=classic;html=1;rounded=0;exitX=0.5;exitY=1;exitDx=0;exitDy=0;" edge="1" parent="1">
          <mxGeometry width="50" height="50" relative="1" as="geometry">
            <mxPoint x="390" y="-900" as="sourcePoint" />
            <mxPoint x="390" y="-860" as="targetPoint" />
          </mxGeometry>
        </mxCell>
        <mxCell id="Z2bBjOUxueCLLeqUOIa0-3" value="Ввід&amp;nbsp;double P, r&lt;div&gt;int n, t;&lt;br&gt;&lt;/div&gt;" style="shape=parallelogram;perimeter=parallelogramPerimeter;whiteSpace=wrap;html=1;fixedSize=1;fillColor=#f5f5f5;fontColor=#333333;strokeColor=#666666;" vertex="1" parent="1">
          <mxGeometry x="330" y="-860" width="120" height="60" as="geometry" />
        </mxCell>
        <mxCell id="Z2bBjOUxueCLLeqUOIa0-5" value="" style="endArrow=classic;html=1;rounded=0;exitX=0.5;exitY=1;exitDx=0;exitDy=0;" edge="1" parent="1">
          <mxGeometry width="50" height="50" relative="1" as="geometry">
            <mxPoint x="390" y="-800" as="sourcePoint" />
            <mxPoint x="390" y="-750" as="targetPoint" />
          </mxGeometry>
        </mxCell>
        <mxCell id="Z2bBjOUxueCLLeqUOIa0-6" value="&lt;span class=&quot;katex&quot;&gt;&lt;span aria-hidden=&quot;true&quot; class=&quot;katex-html&quot;&gt;&lt;span class=&quot;base&quot;&gt;&lt;span class=&quot;mord mathnormal&quot;&gt;A&lt;/span&gt;&lt;span class=&quot;mspace&quot;&gt;&lt;/span&gt;&lt;span class=&quot;mrel&quot;&gt;=&lt;/span&gt;&lt;span class=&quot;mspace&quot;&gt;&lt;/span&gt;&lt;/span&gt;&lt;span class=&quot;base&quot;&gt;&lt;span class=&quot;strut&quot;&gt;&lt;/span&gt;&lt;span class=&quot;mord mathnormal&quot;&gt;P&lt;/span&gt;&lt;span class=&quot;mspace&quot;&gt;&lt;/span&gt;&lt;span class=&quot;mbin&quot;&gt;×&lt;/span&gt;&lt;span class=&quot;mspace&quot;&gt;&lt;/span&gt;&lt;/span&gt;&lt;span class=&quot;base&quot;&gt;&lt;span class=&quot;strut&quot;&gt;&lt;/span&gt;&lt;span class=&quot;minner&quot;&gt;&lt;span class=&quot;minner&quot;&gt;&lt;span class=&quot;mopen delimcenter&quot;&gt;&lt;span class=&quot;delimsizing size1&quot;&gt;(&lt;/span&gt;&lt;/span&gt;&lt;span class=&quot;mord&quot;&gt;1&lt;/span&gt;&lt;span class=&quot;mspace&quot;&gt;&lt;/span&gt;&lt;span class=&quot;mbin&quot;&gt;+r/n&lt;/span&gt;&lt;span class=&quot;mclose delimcenter&quot;&gt;&lt;span class=&quot;delimsizing size1&quot;&gt;)^n*t&lt;/span&gt;&lt;/span&gt;&lt;/span&gt;&lt;/span&gt;&lt;/span&gt;&lt;/span&gt;&lt;/span&gt;" style="rounded=0;whiteSpace=wrap;html=1;fillColor=#e1d5e7;strokeColor=#9673a6;" vertex="1" parent="1">
          <mxGeometry x="330" y="-750" width="120" height="60" as="geometry" />
        </mxCell>
        <mxCell id="Z2bBjOUxueCLLeqUOIa0-7" value="" style="endArrow=classic;html=1;rounded=0;exitX=0.5;exitY=1;exitDx=0;exitDy=0;" edge="1" parent="1" source="Z2bBjOUxueCLLeqUOIa0-6">
          <mxGeometry width="50" height="50" relative="1" as="geometry">
            <mxPoint x="326" y="-700" as="sourcePoint" />
            <mxPoint x="390" y="-640" as="targetPoint" />
            <Array as="points" />
          </mxGeometry>
        </mxCell>
        <mxCell id="Z2bBjOUxueCLLeqUOIa0-8" value="Вивід P, A, A-P" style="shape=parallelogram;perimeter=parallelogramPerimeter;whiteSpace=wrap;html=1;fixedSize=1;fillColor=#f5f5f5;fontColor=#333333;strokeColor=#666666;" vertex="1" parent="1">
          <mxGeometry x="330" y="-640" width="120" height="60" as="geometry" />
        </mxCell>
        <mxCell id="caaegT_ehti5-psHz5Es-3" value="" style="endArrow=classic;html=1;rounded=0;" edge="1" parent="1">
          <mxGeometry width="50" height="50" relative="1" as="geometry">
            <mxPoint x="396" y="-580" as="sourcePoint" />
            <mxPoint x="396" y="-530" as="targetPoint" />
          </mxGeometry>
        </mxCell>
        <mxCell id="ywUi_Cb0OZuITukx0e_t-1" value="Початок" style="ellipse;whiteSpace=wrap;html=1;" vertex="1" parent="1">
          <mxGeometry x="330" y="-980" width="120" height="80" as="geometry" />
        </mxCell>
        <mxCell id="ywUi_Cb0OZuITukx0e_t-2" value="Кінець" style="ellipse;whiteSpace=wrap;html=1;" vertex="1" parent="1">
          <mxGeometry x="340" y="-530" width="120" height="80" as="geometry" />
        </mxCell>
      </root>
    </mxGraphModel>
  </diagram>
</mxfile>
